# xmcd
#
# Track frame offsets:
#	150
#	11222
#	25074
#	36320
#	45419
#	57992
#	71944
#	83363
#	91502
#	101097
#
# Disc length: 1520 seconds
#
# Revision: 1
# Processed by: cddbd v1.5.2PL0 Copyright (c) Steve Scherf et al.
# Submitted via: audiograbber 1.83.01
#
DISCID=7505ee0a
DTITLE=Charley Pride - To My Wonderful Fans
DYEAR=1971
DGENRE=Country
TTITLE0=That's The Way Life's Good To Me
TTITLE1=I Can't Believe That You Stopped Loving Me
TTITLE2=(There's Still) Someone I Can't Forget
TTITLE3=Sweet Promises
TTITLE4=Was It All Worth Losing You
TTITLE5=Fifteen Years Ago
TTITLE6=Wonder Could I Live There Anymore
TTITLE7=Piroque Joe
TTITLE8=Time (You're Not A Friend of Mine)
TTITLE9=Today Is That Tomorrow
EXTD=
EXTT0=
EXTT1=
EXTT2=
EXTT3=
EXTT4=
EXTT5=
EXTT6=
EXTT7=
EXTT8=
EXTT9=
PLAYORDER=
